<svg width="32" height="32" viewBox="0 0 32 32" xmlns="http://www.w3.org/2000/svg">
  <defs>
    <linearGradient id="gradient" x1="0%" y1="0%" x2="100%" y2="100%">
      <stop offset="0%" style="stop-color:#3B82F6;stop-opacity:1" />
      <stop offset="100%" style="stop-color:#1E40AF;stop-opacity:1" />
    </linearGradient>
  </defs>
  <rect width="32" height="32" rx="8" fill="url(#gradient)"/>
  <path d="M9 11c0-1.5 1.2-2.5 2.5-2.5h8c1.8 0 3 1.2 3 3s-1.2 3-3 3h-8c-0.3 0-0.5 0.2-0.5 0.5s0.2 0.5 0.5 0.5h5c1.8 0 3 1.2 3 3v1c0 1.8-1.2 3-3 3h-8c-1.3 0-2.5-1-2.5-2.5s1.2-2.5 2.5-2.5h8c0.3 0 0.5-0.2 0.5-0.5s-0.2-0.5-0.5-0.5h-5c-1.8 0-3-1.2-3-3V11z" fill="white" stroke="rgba(255,255,255,0.3)" stroke-width="0.5"/>
</svg>